<?xml version="1.0" encoding="UTF-8" standalone="no"?><!DOCTYPE svg PUBLIC "-//W3C//DTD SVG 1.1//EN" "http://www.w3.org/Graphics/SVG/1.1/DTD/svg11.dtd"><svg width="100%" height="100%" viewBox="0 0 6 14" version="1.1" xmlns="http://www.w3.org/2000/svg" xmlns:xlink="http://www.w3.org/1999/xlink" xml:space="preserve" xmlns:serif="http://www.serif.com/" style="fill-rule:evenodd;clip-rule:evenodd;stroke-linejoin:round;stroke-miterlimit:2;"><g><path d="M4.707,6.509c0.2,-0 0.362,-0.162 0.362,-0.362l0.001,-1.085l-1.809,0.001c-0.199,0 -0.361,-0.162 -0.361,-0.361l-0.001,1.808l1.808,-0.001Z" style="fill-rule:nonzero;"/><path d="M3.262,4.34l1.809,-0.002l0.001,-1.447l-1.809,0.002c-0.2,-0 -0.362,-0.162 -0.362,-0.362l-0.001,2.171c-0,-0.2 0.162,-0.362 0.362,-0.362Z" style="fill-rule:nonzero;"/><path d="M4.711,0.721l-1.844,0.001c0.046,0.234 0.035,0.226 0.034,1.809c0,-0.2 0.163,-0.362 0.362,-0.362l1.809,-0.001l0.001,-1.086c0,-0.199 -0.162,-0.361 -0.362,-0.361Z" style="fill-rule:nonzero;"/><path d="M1.094,0c-0.6,0 -1.085,0.486 -1.086,1.086l-0.008,11.775c-0,0.598 0.486,1.085 1.085,1.085c0.599,-0.001 1.085,-0.487 1.086,-1.086l0.008,-11.775c0,-0.599 -0.486,-1.085 -1.085,-1.085Z" style="fill-rule:nonzero;"/></g></svg>