<?xml version="1.0" encoding="UTF-8" standalone="no"?><!DOCTYPE svg PUBLIC "-//W3C//DTD SVG 1.1//EN" "http://www.w3.org/Graphics/SVG/1.1/DTD/svg11.dtd"><svg width="100%" height="100%" viewBox="0 0 6 14" version="1.1" xmlns="http://www.w3.org/2000/svg" xmlns:xlink="http://www.w3.org/1999/xlink" xml:space="preserve" xmlns:serif="http://www.serif.com/" style="fill-rule:evenodd;clip-rule:evenodd;stroke-linejoin:round;stroke-miterlimit:2;"><path d="M4.713,0.721l-2.595,0.002c-0.146,-0.414 -0.543,-0.723 -1.024,-0.723c-0.598,0 -1.085,0.488 -1.086,1.086l-0.008,11.78c-0,0.6 0.485,1.086 1.085,1.086c0.598,-0.001 1.086,-0.488 1.086,-1.086l0.005,-6.353l2.534,-0.002c0.199,0 0.361,-0.161 0.361,-0.361l0.004,-5.067c0,-0.2 -0.162,-0.362 -0.362,-0.362Zm-3.265,12.144c-0,0.2 -0.163,0.363 -0.363,0.363c-0.2,0 -0.362,-0.161 -0.362,-0.361l0.009,-11.781c-0,-0.2 0.163,-0.362 0.363,-0.363c0.2,0 0.361,0.162 0.361,0.362l-0.008,11.78Zm2.903,-10.696l-1.087,0.001c-0.2,0 -0.361,0.162 -0.361,0.362c-0,0.2 0.162,0.362 0.362,0.361l1.085,-0l-0.001,1.448l-1.086,0.001c-0.2,-0 -0.362,0.162 -0.362,0.362c0,0.199 0.162,0.361 0.362,0.361l1.086,-0.001l-0.001,0.725l-2.172,0.001l0.003,-4.344l2.172,-0.001l-0,0.724Z" style="fill-rule:nonzero;"/></svg>